<svg width="180" height="27" viewBox="0 0 180 27" fill="none" xmlns="http://www.w3.org/2000/svg">
<path d="M11.2145 21V8.4943H6.28268V5.58804H19.7131V8.4943H14.7813V21H11.2145ZM21.132 21V9.15481H24.4125V12.5014L23.9502 11.5327C24.3025 10.696 24.8676 10.0648 25.6455 9.63918C26.4234 9.19884 27.3702 8.97867 28.4857 8.97867V12.1491C28.3389 12.1345 28.2068 12.1271 28.0894 12.1271C27.972 12.1124 27.8472 12.1051 27.7151 12.1051C26.7757 12.1051 26.0125 12.3766 25.4253 12.9197C24.8529 13.4481 24.5667 14.2774 24.5667 15.4077V21H21.132ZM37.0196 21V18.6882L36.7994 18.1818V14.0426C36.7994 13.3087 36.5719 12.7363 36.1169 12.3253C35.6765 11.9143 34.994 11.7088 34.0693 11.7088C33.4381 11.7088 32.8143 11.8115 32.1978 12.017C31.596 12.2078 31.0823 12.472 30.6566 12.8096L29.4237 10.4098C30.0695 9.95476 30.8474 9.60249 31.7575 9.35296C32.6675 9.10344 33.5922 8.97867 34.5316 8.97867C36.337 8.97867 37.7388 9.40434 38.7369 10.2557C39.735 11.107 40.2341 12.4354 40.2341 14.2408V21H37.0196ZM33.4088 21.1761C32.484 21.1761 31.6914 21.022 31.0309 20.7138C30.3704 20.3909 29.864 19.9579 29.5117 19.4148C29.1595 18.8717 28.9833 18.2625 28.9833 17.5874C28.9833 16.8828 29.1521 16.2663 29.4897 15.7379C29.842 15.2095 30.3924 14.7985 31.141 14.505C31.8896 14.1967 32.8657 14.0426 34.0693 14.0426H37.2177V16.0462H34.4436C33.6363 16.0462 33.0785 16.1783 32.7703 16.4425C32.4767 16.7067 32.3299 17.0369 32.3299 17.4332C32.3299 17.8736 32.4987 18.2258 32.8363 18.4901C33.1886 18.7396 33.6656 18.8643 34.2674 18.8643C34.8399 18.8643 35.3536 18.7322 35.8086 18.468C36.2636 18.1892 36.5939 17.7855 36.7994 17.2571L37.3278 18.8423C37.0783 19.6056 36.6233 20.1854 35.9627 20.5817C35.3022 20.978 34.4509 21.1761 33.4088 21.1761ZM46.3421 21L41.3662 9.15481H44.911L49.0502 19.3487H47.2888L51.5821 9.15481H54.8847L49.8868 21H46.3421ZM61.8423 21.1761C60.4919 21.1761 59.303 20.9119 58.2755 20.3835C57.2627 19.8551 56.4774 19.1359 55.9197 18.2258C55.3619 17.3011 55.083 16.2516 55.083 15.0774C55.083 13.8885 55.3546 12.839 55.8977 11.929C56.4554 11.0042 57.2113 10.285 58.1654 9.77129C59.1195 9.24288 60.1983 8.97867 61.4019 8.97867C62.5615 8.97867 63.6036 9.2282 64.5284 9.72725C65.4678 10.2116 66.209 10.9162 66.7521 11.8409C67.2952 12.7509 67.5667 13.8444 67.5667 15.1214C67.5667 15.2535 67.5594 15.4077 67.5447 15.5838C67.53 15.7453 67.5153 15.8994 67.5007 16.0462H57.8792V14.0426H65.6953L64.3742 14.6371C64.3742 14.0206 64.2495 13.4848 63.9999 13.0298C63.7504 12.5748 63.4055 12.2225 62.9651 11.973C62.5248 11.7088 62.0111 11.5767 61.424 11.5767C60.8368 11.5767 60.3158 11.7088 59.8607 11.973C59.4204 12.2225 59.0755 12.5821 58.8259 13.0518C58.5764 13.5069 58.4516 14.0499 58.4516 14.6811V15.2095C58.4516 15.8553 58.5911 16.4278 58.87 16.9268C59.1635 17.4112 59.5672 17.7855 60.0809 18.0497C60.6093 18.2992 61.2258 18.424 61.9303 18.424C62.5615 18.424 63.1119 18.3286 63.5816 18.1378C64.066 17.947 64.5063 17.6607 64.9026 17.2791L66.7301 19.2607C66.187 19.8771 65.5045 20.3542 64.6825 20.6918C63.8605 21.0147 62.9138 21.1761 61.8423 21.1761ZM69.8534 21V4.66332H73.2881V21H69.8534ZM76.7179 21V5.58804H79.6682L86.2293 16.4645H84.6661L91.1171 5.58804H94.0454L94.0894 21H90.7428L90.7208 10.718H91.3373L86.1853 19.3707H84.578L79.3159 10.718H80.0645V21H76.7179ZM103.382 21.1761C102.032 21.1761 100.843 20.9119 99.8155 20.3835C98.8028 19.8551 98.0175 19.1359 97.4597 18.2258C96.902 17.3011 96.6231 16.2516 96.6231 15.0774C96.6231 13.8885 96.8946 12.839 97.4377 11.929C97.9955 11.0042 98.7514 10.285 99.7055 9.77129C100.66 9.24288 101.738 8.97867 102.942 8.97867C104.102 8.97867 105.144 9.2282 106.068 9.72725C107.008 10.2116 107.749 10.9162 108.292 11.8409C108.835 12.7509 109.107 13.8444 109.107 15.1214C109.107 15.2535 109.099 15.4077 109.085 15.5838C109.07 15.7453 109.055 15.8994 109.041 16.0462H99.4192V14.0426H107.235L105.914 14.6371C105.914 14.0206 105.79 13.4848 105.54 13.0298C105.29 12.5748 104.946 12.2225 104.505 11.973C104.065 11.7088 103.551 11.5767 102.964 11.5767C102.377 11.5767 101.856 11.7088 101.401 11.973C100.96 12.2225 100.616 12.5821 100.366 13.0518C100.116 13.5069 99.9917 14.0499 99.9917 14.6811V15.2095C99.9917 15.8553 100.131 16.4278 100.41 16.9268C100.704 17.4112 101.107 17.7855 101.621 18.0497C102.149 18.2992 102.766 18.424 103.47 18.424C104.102 18.424 104.652 18.3286 105.122 18.1378C105.606 17.947 106.046 17.6607 106.443 17.2791L108.27 19.2607C107.727 19.8771 107.044 20.3542 106.223 20.6918C105.401 21.0147 104.454 21.1761 103.382 21.1761ZM116.479 21.1761C115.364 21.1761 114.358 20.9266 113.463 20.4276C112.568 19.9138 111.856 19.2019 111.327 18.2919C110.814 17.3819 110.557 16.3104 110.557 15.0774C110.557 13.8298 110.814 12.7509 111.327 11.8409C111.856 10.9309 112.568 10.2263 113.463 9.72725C114.358 9.2282 115.364 8.97867 116.479 8.97867C117.477 8.97867 118.351 9.19884 119.099 9.63918C119.848 10.0795 120.428 10.7474 120.839 11.6427C121.25 12.5381 121.455 13.683 121.455 15.0774C121.455 16.4571 121.257 17.602 120.861 18.5121C120.464 19.4074 119.892 20.0753 119.143 20.5156C118.41 20.956 117.522 21.1761 116.479 21.1761ZM117.074 18.3579C117.632 18.3579 118.138 18.2258 118.593 17.9616C119.048 17.6974 119.408 17.3231 119.672 16.8388C119.951 16.3397 120.09 15.7526 120.09 15.0774C120.09 14.3875 119.951 13.8004 119.672 13.316C119.408 12.8317 119.048 12.4574 118.593 12.1932C118.138 11.929 117.632 11.7969 117.074 11.7969C116.501 11.7969 115.988 11.929 115.533 12.1932C115.078 12.4574 114.711 12.8317 114.432 13.316C114.168 13.8004 114.035 14.3875 114.035 15.0774C114.035 15.7526 114.168 16.3397 114.432 16.8388C114.711 17.3231 115.078 17.6974 115.533 17.9616C115.988 18.2258 116.501 18.3579 117.074 18.3579ZM120.178 21V18.5781L120.244 15.0554L120.024 11.5547V4.66332H123.459V21H120.178ZM126.638 21V9.15481H130.072V21H126.638ZM128.355 7.50353C127.724 7.50353 127.21 7.32005 126.814 6.9531C126.418 6.58615 126.219 6.13113 126.219 5.58804C126.219 5.04495 126.418 4.58993 126.814 4.22298C127.21 3.85603 127.724 3.67255 128.355 3.67255C128.986 3.67255 129.5 3.84869 129.896 4.20096C130.293 4.53856 130.491 4.9789 130.491 5.52199C130.491 6.09443 130.293 6.57147 129.896 6.9531C129.515 7.32005 129.001 7.50353 128.355 7.50353ZM140.526 21V18.6882L140.305 18.1818V14.0426C140.305 13.3087 140.078 12.7363 139.623 12.3253C139.183 11.9143 138.5 11.7088 137.575 11.7088C136.944 11.7088 136.32 11.8115 135.704 12.017C135.102 12.2078 134.588 12.472 134.163 12.8096L132.93 10.4098C133.576 9.95476 134.354 9.60249 135.264 9.35296C136.174 9.10344 137.098 8.97867 138.038 8.97867C139.843 8.97867 141.245 9.40434 142.243 10.2557C143.241 11.107 143.74 12.4354 143.74 14.2408V21H140.526ZM136.915 21.1761C135.99 21.1761 135.198 21.022 134.537 20.7138C133.876 20.3909 133.37 19.9579 133.018 19.4148C132.666 18.8717 132.489 18.2625 132.489 17.5874C132.489 16.8828 132.658 16.2663 132.996 15.7379C133.348 15.2095 133.899 14.7985 134.647 14.505C135.396 14.1967 136.372 14.0426 137.575 14.0426H140.724V16.0462H137.95C137.142 16.0462 136.585 16.1783 136.276 16.4425C135.983 16.7067 135.836 17.0369 135.836 17.4332C135.836 17.8736 136.005 18.2258 136.342 18.4901C136.695 18.7396 137.172 18.8643 137.774 18.8643C138.346 18.8643 138.86 18.7322 139.315 18.468C139.77 18.1892 140.1 17.7855 140.305 17.2571L140.834 18.8423C140.584 19.6056 140.129 20.1854 139.469 20.5817C138.808 20.978 137.957 21.1761 136.915 21.1761ZM148.148 21.1761C147.561 21.1761 147.054 20.978 146.629 20.5817C146.218 20.1707 146.012 19.6496 146.012 19.0185C146.012 18.3873 146.218 17.8809 146.629 17.4993C147.054 17.103 147.561 16.9048 148.148 16.9048C148.749 16.9048 149.256 17.103 149.667 17.4993C150.078 17.8809 150.283 18.3873 150.283 19.0185C150.283 19.6496 150.078 20.1707 149.667 20.5817C149.256 20.978 148.749 21.1761 148.148 21.1761ZM152.611 21V9.15481H156.046V21H152.611ZM154.328 7.50353C153.697 7.50353 153.183 7.32005 152.787 6.9531C152.391 6.58615 152.193 6.13113 152.193 5.58804C152.193 5.04495 152.391 4.58993 152.787 4.22298C153.183 3.85603 153.697 3.67255 154.328 3.67255C154.959 3.67255 155.473 3.84869 155.87 4.20096C156.266 4.53856 156.464 4.9789 156.464 5.52199C156.464 6.09443 156.266 6.57147 155.87 6.9531C155.488 7.32005 154.974 7.50353 154.328 7.50353ZM166.433 8.97867C167.372 8.97867 168.209 9.16949 168.943 9.55112C169.691 9.91807 170.279 10.4905 170.704 11.2684C171.13 12.0317 171.343 13.0151 171.343 14.2187V21H167.908V14.7471C167.908 13.7931 167.695 13.0885 167.27 12.6335C166.859 12.1785 166.271 11.951 165.508 11.951C164.965 11.951 164.473 12.0684 164.033 12.3033C163.607 12.5234 163.27 12.8684 163.02 13.3381C162.785 13.8078 162.668 14.4096 162.668 15.1435V21H159.233V9.15481H162.514V12.4354L161.897 11.4446C162.323 10.652 162.932 10.0428 163.725 9.61717C164.517 9.1915 165.42 8.97867 166.433 8.97867Z" fill="white"/>
</svg>
